<svg xmlns="http://www.w3.org/2000/svg" width="220" height="42" viewBox="0 0 220 42">
  <defs>
    <linearGradient id="g" x1="0" y1="0" x2="1" y2="0">
      <stop offset="0" stop-color="#6e82a4"/>
      <stop offset="1" stop-color="#4d607d"/>
    </linearGradient>
  </defs>
  <rect x="0" y="6" width="220" height="30" rx="15" fill="url(#g)"/>
  <rect x="8" y="12" width="204" height="18" rx="9" fill="#3d4f69"/>
  <rect x="0" y="6" width="220" height="30" rx="15" fill="none" stroke="#b9c8e6" stroke-width="1.4" opacity="0.5"/>
  <g stroke="#d2def5" stroke-opacity="0.7" stroke-width="1.8">
    <line x1="18" y1="14" x2="32" y2="28"/>
    <line x1="32" y1="14" x2="46" y2="28"/>
    <line x1="46" y1="14" x2="60" y2="28"/>
    <line x1="60" y1="14" x2="74" y2="28"/>
    <line x1="74" y1="14" x2="88" y2="28"/>
    <line x1="88" y1="14" x2="102" y2="28"/>
    <line x1="102" y1="14" x2="116" y2="28"/>
    <line x1="116" y1="14" x2="130" y2="28"/>
    <line x1="130" y1="14" x2="144" y2="28"/>
    <line x1="144" y1="14" x2="158" y2="28"/>
    <line x1="158" y1="14" x2="172" y2="28"/>
    <line x1="172" y1="14" x2="186" y2="28"/>
    <line x1="32" y1="28" x2="46" y2="14"/>
    <line x1="46" y1="28" x2="60" y2="14"/>
    <line x1="60" y1="28" x2="74" y2="14"/>
    <line x1="74" y1="28" x2="88" y2="14"/>
    <line x1="88" y1="28" x2="102" y2="14"/>
    <line x1="102" y1="28" x2="116" y2="14"/>
    <line x1="116" y1="28" x2="130" y2="14"/>
    <line x1="130" y1="28" x2="144" y2="14"/>
    <line x1="144" y1="28" x2="158" y2="14"/>
    <line x1="158" y1="28" x2="172" y2="14"/>
    <line x1="172" y1="28" x2="186" y2="14"/>
  </g>
  <rect x="12" y="19" width="196" height="4" rx="2" fill="#0f1a2a" opacity="0.6"/>
  <circle cx="18" cy="21" r="5" fill="#00f5d4"/>
  <circle cx="202" cy="21" r="5" fill="#00f5d4"/>
</svg>